<svg id="Layer_1" data-name="Layer 1" xmlns="http://www.w3.org/2000/svg" viewBox="0 0 333.88 353.98"><defs><style>.cls-1{fill:#c1272d;}.cls-2{font-size:41.8px;fill:#c5050c;font-family:Helvetica, Helvetica;}</style></defs><title>Artboard 1</title><path class="cls-1" d="M135.59,174.41c.39-18.25,14.19-31.65,31.38-31.65s30.84,14.28,30.94,31.83c.09,17.86-14.22,32.82-32,32.23C149.47,206.28,135.72,193.55,135.59,174.41Z"/><path class="cls-1" d="M210,290.86c-1.92-3.31-3.61-6.16-5.24-9q-9.61-17-19.2-33.95c-2.85-5.08-5.6-10.2-8.4-15.3-.23-.42-.43-.86-.68-1.27-2-3.35-3.35-3.39-5.33,0-5.55,9.61-11,19.27-16.51,28.89-2,3.53-4.12,7-6.27,10.46a2.74,2.74,0,0,1-1.79,1.31c-5.73.1-11.46.06-17.67.06a36.88,36.88,0,0,1,1.6-3.84c5.24-9.31,10.54-18.58,15.78-27.88,4.55-8.07,9.09-16.14,13.5-24.27a4.79,4.79,0,0,1,4.59-2.91c6.52-.33,13-1.06,19.53-1.78a2.57,2.57,0,0,1,3,1.69c2,4,4,8,6.1,11.89,3.42,6.21,7,12.34,10.45,18.52,4.9,8.75,9.65,17.58,14.72,26.24,1.63,2.78,1.74,4.91-.09,7.63-2.36,3.5-4.23,7.32-6.34,11C211.3,289.06,210.77,289.71,210,290.86Z"/><path class="cls-1" d="M205.6,77.91C204,81,202.81,83.55,201.43,86q-7.29,13-14.68,26.05c-4.2,7.42-8.46,14.81-12.67,22.22a3.31,3.31,0,0,1-3.52,1.91c-7.16-.75-14.19.36-21.18,1.76a3.11,3.11,0,0,1-3.89-1.76Q136.31,119.55,127,103,120.59,91.47,114.1,80a4.18,4.18,0,0,1,0-4.86c2.67-4.25,5.06-8.67,7.57-13a10.64,10.64,0,0,1,.92-1.09c2.56,4.37,5,8.53,7.42,12.74q10.91,19.11,21.74,38.27c1.73,3,3.47,6.1,5.25,9.12,1.37,2.31,2.41,2.4,3.74.18q7-11.81,13.95-23.7c3.51-6.06,6.87-12.21,10.4-18.25A3.19,3.19,0,0,1,187.39,78C193.22,77.86,199,77.91,205.6,77.91Z"/><path class="cls-1" d="M242.87,78c-1.66,3.15-3,5.77-4.4,8.31q-8.61,15.33-17.29,30.62c-4.05,7.15-8.16,14.26-12.16,21.43-1.78,3.18-1.23,4.12,2.44,4.15q21.35.21,42.7.26c2.5,0,4.07.63,5.24,3.1,1.66,3.52,3.94,6.74,5.87,10.14.82,1.42,1.43,3,2.29,4.77-1.21.1-2,.21-2.76.21-13.34,0-26.69-.13-40,.05-3.25,0-5.19-1.6-7.16-3.6-7.74-7.92-17.05-13.33-27.35-17.13-1.94-.72-2.35-1.48-1.3-3.29,4-6.9,7.93-13.84,11.85-20.79,4.42-7.85,8.78-15.74,13.2-23.59q3.83-6.78,7.8-13.46A2.47,2.47,0,0,1,223.49,78C229.71,78,235.93,78,242.87,78Z"/><path class="cls-1" d="M65.3,188.81c2.75-.13,5.19-.35,7.62-.35,12.07,0,24.14.07,36.2.23a5.3,5.3,0,0,1,3.34,1.45,80.14,80.14,0,0,0,31.33,19.71c1.65.56,1.36,1.5.77,2.59-3.47,6.47-6.9,12.95-10.45,19.38-3.77,6.84-7.63,13.63-11.52,20.41-3.41,6-6.93,11.83-10.38,17.76a4,4,0,0,1-3.89,2.17c-5.42-.12-10.84,0-16.77,0,.84-1.83,1.4-3.28,2.15-4.63q7.33-13,14.73-26c4.34-7.62,8.76-15.2,13-22.85,1.51-2.71,2.81-5.55,4.06-8.39,1-2.16.39-3-1.94-3-10.39-.07-20.78-.07-31.18-.12-5,0-10.07,0-15.1-.17a4.45,4.45,0,0,1-3.18-1.67c-2.89-4.77-5.54-9.68-8.25-14.55A12.67,12.67,0,0,1,65.3,188.81Z"/><path class="cls-1" d="M216.52,194.19c2.19-2.41,4-4.17,5.54-6.16,2.63-3.4,5-7,7.67-10.38a4.63,4.63,0,0,1,3-1.78c13.44-.08,26.88,0,40.31,0,2.66,0,4.21,1.14,5.39,3.47,2,3.91,4.29,7.66,6.43,11.49.54,1,1,1.94,1.69,3.34Z"/><path class="cls-1" d="M46.52,155.75h68.73c-.56.75-.93,1.27-1.32,1.77-3.58,4.58-7.36,9-10.67,13.79a6,6,0,0,1-5.51,2.94c-11.83-.07-23.68-.38-35.5.05-4.85.17-7-1.84-8.85-5.75C51.46,164.37,49.05,160.41,46.52,155.75Z"/><path class="cls-1" d="M228.61,258c-1.31-2.15-2.55-4.07-3.66-6.06-4.46-7.93-8.87-15.89-13.31-23.83-2.1-3.75-4.31-7.45-6.34-11.25-1.77-3.29-3.42-6.66-5-10.06a2.37,2.37,0,0,1,.85-2c3.65-2.57,7.41-5,11.08-7.5,1.34-.93,2.25-.87,3,.66,2.95,5.64,5.91,11.28,8.94,16.88,2.78,5.12,5.64,10.18,8.48,15.27,1.82,3.27,3.68,6.52,5.44,9.83a2.44,2.44,0,0,1,.13,2c-2.86,5.15-5.81,10.26-8.75,15.37C229.44,257.41,229.19,257.52,228.61,258Z"/><path class="cls-1" d="M104.11,93.56c2.12,3.66,4.17,7.13,6.15,10.64,3.68,6.54,7.31,13.1,11,19.64q5.19,9.3,10.42,18.58c.7,1.24.44,2-.75,2.76q-5.55,3.52-11,7.2c-1.16.77-1.92.82-2.67-.54-4-7.11-8-14.17-11.93-21.26-3.12-5.56-6.12-11.19-9.39-16.66a6.16,6.16,0,0,1,0-7.1c2.51-4.06,4.86-8.23,7.29-12.35C103.3,94.22,103.59,94.05,104.11,93.56Z"/><text class="cls-2" transform="matrix(-0.6, -0.8, 0.8, -0.6, 71.47, 257.98)">U</text><text class="cls-2" transform="matrix(-0.41, -0.91, 0.91, -0.41, 53.67, 234.6)">N</text><text class="cls-2" transform="translate(42.06 207.25) rotate(-105.32)">I</text><text class="cls-2" transform="translate(38.48 196.52) rotate(-96.83)">V</text><text class="cls-2" transform="translate(35.18 169.55) rotate(-85.13)">E</text><text class="cls-2" transform="translate(37.27 142.48) rotate(-72.77)">R</text><text class="cls-2" transform="translate(46.02 114.43) rotate(-60.4)">S</text><text class="cls-2" transform="translate(60.11 90.79) rotate(-51.94)">I</text><text class="cls-2" transform="matrix(0.72, -0.69, 0.69, 0.72, 66.7, 81.55)">T</text><text class="cls-2" transform="matrix(0.84, -0.54, 0.54, 0.84, 84.47, 64.13)">Y</text><text class="cls-2" transform="matrix(0.91, -0.42, 0.42, 0.91, 107.27, 50.08)"> </text><text class="cls-2" transform="translate(117.45 45.41) rotate(-19.62)"> </text><text class="cls-2" transform="translate(127.3 40.92) rotate(-10.33)">O</text><text class="cls-2" transform="translate(158.12 35.56) rotate(1.69)">F</text><text class="cls-2" transform="matrix(0.99, 0.16, -0.16, 0.99, 182.87, 36.71)"> </text><text class="cls-2" transform="matrix(0.97, 0.25, -0.25, 0.97, 193.92, 38.53)"> </text><text class="cls-2" transform="translate(206.42 40.37) rotate(25.92)">W</text><text class="cls-2" transform="translate(241.86 59.24) rotate(37.4)">I</text><text class="cls-2" transform="matrix(0.69, 0.72, -0.72, 0.69, 252.32, 66.54)">S</text><text class="cls-2" transform="matrix(0.51, 0.86, -0.86, 0.51, 272.04, 87.19)">C</text><text class="cls-2" transform="translate(287.81 113.62) rotate(73.29)">O</text><text class="cls-2" transform="matrix(0.05, 1, -1, 0.05, 297.1, 145.35)">N</text><text class="cls-2" transform="translate(298.42 176.18) rotate(100.03)">S</text><text class="cls-2" transform="translate(292.67 204.51) rotate(109.17)">I</text><text class="cls-2" transform="translate(289.15 216.72) rotate(118.78)">N</text><text class="cls-2" transform="translate(273.4 243.61) rotate(128.33)"> </text><text class="cls-2" transform="translate(266.46 252.41) rotate(133.21)"> </text><text class="cls-2" transform="translate(258.8 260.6) rotate(138.07)"> </text><text class="cls-2" transform="translate(77.02 308.7) rotate(26.47)">M</text><text class="cls-2" transform="translate(112.3 325.35) rotate(14.23)">A</text><text class="cls-2" transform="translate(143.01 332.86) rotate(3)">D</text><text class="cls-2" transform="translate(175.38 333.78) rotate(-4.84)">I</text><text class="cls-2" transform="translate(189.09 333.01) rotate(-12.33)">S</text><text class="cls-2" transform="matrix(0.91, -0.41, 0.41, 0.91, 220.19, 326.04)">O</text><text class="cls-2" transform="matrix(0.81, -0.59, 0.59, 0.81, 253.42, 310.56)">N</text></svg>