<svg id="Layer_1" data-name="Layer 1" xmlns="http://www.w3.org/2000/svg" viewBox="0 0 240.07 229.81"><defs><style>.cls-1{fill:#c1272d;}</style></defs><title>Artboard 1</title><path class="cls-1" d="M89.07,113.36c.39-18.25,14.2-31.65,31.38-31.65S151.29,96,151.39,113.54c.09,17.86-14.22,32.82-32,32.23C103,145.23,89.2,132.5,89.07,113.36Z"/><path class="cls-1" d="M163.45,229.81c-1.92-3.31-3.61-6.16-5.24-9q-9.61-17-19.2-34c-2.85-5.07-5.6-10.2-8.4-15.3-.23-.42-.43-.86-.68-1.27-2-3.35-3.35-3.39-5.33,0-5.55,9.61-11,19.27-16.51,28.89-2,3.53-4.12,7-6.27,10.47A2.76,2.76,0,0,1,100,211c-5.73.1-11.46.06-17.67.06a36.88,36.88,0,0,1,1.6-3.84c5.24-9.31,10.54-18.58,15.78-27.88,4.55-8.07,9.09-16.13,13.5-24.27a4.8,4.8,0,0,1,4.59-2.91c6.53-.33,13-1.06,19.53-1.78a2.57,2.57,0,0,1,3,1.69c2,4,4,8,6.1,11.89,3.42,6.21,7,12.34,10.45,18.52,4.9,8.75,9.65,17.58,14.72,26.24,1.63,2.78,1.74,4.91-.09,7.63-2.36,3.5-4.23,7.33-6.33,11C164.78,228,164.25,228.66,163.45,229.81Z"/><path class="cls-1" d="M159.08,16.86c-1.57,3.07-2.79,5.64-4.17,8.11Q147.62,38,140.23,51c-4.2,7.42-8.46,14.81-12.67,22.22A3.33,3.33,0,0,1,124,75.16c-7.16-.76-14.19.35-21.17,1.75A3.12,3.12,0,0,1,99,75.15Q89.79,58.5,80.49,41.91,74.07,30.42,67.58,19a4.19,4.19,0,0,1,0-4.86c2.67-4.24,5.06-8.67,7.58-13A9.16,9.16,0,0,1,76.1,0c2.56,4.37,5,8.53,7.43,12.74Q94.42,31.86,105.26,51c1.73,3.05,3.47,6.1,5.26,9.12,1.36,2.31,2.4,2.4,3.73.18q7.05-11.81,13.95-23.7c3.51-6.06,6.87-12.21,10.4-18.25a3.19,3.19,0,0,1,2.28-1.43C146.7,16.81,152.52,16.86,159.08,16.86Z"/><path class="cls-1" d="M196.35,16.93c-1.66,3.15-3,5.77-4.4,8.31q-8.61,15.33-17.29,30.62c-4,7.15-8.16,14.26-12.16,21.43-1.78,3.18-1.23,4.12,2.44,4.15q21.36.21,42.7.26c2.5,0,4.07.63,5.24,3.1,1.66,3.52,3.94,6.74,5.87,10.14.82,1.42,1.43,3,2.3,4.77-1.22.1-2,.21-2.77.21-13.34,0-26.69-.13-40,0-3.25,0-5.19-1.6-7.16-3.6C163.35,88.45,154,83,143.74,79.24c-1.94-.72-2.34-1.48-1.3-3.29,4-6.9,7.93-13.84,11.85-20.79,4.42-7.85,8.78-15.74,13.21-23.59q3.81-6.78,7.79-13.46A2.47,2.47,0,0,1,177,17C183.19,16.9,189.41,16.93,196.35,16.93Z"/><path class="cls-1" d="M18.78,127.76c2.75-.13,5.19-.35,7.62-.35,12.07,0,24.14.07,36.2.23a5.31,5.31,0,0,1,3.34,1.46,80.23,80.23,0,0,0,31.33,19.7c1.66.57,1.36,1.5.77,2.59-3.47,6.47-6.9,13-10.44,19.38Q81.93,181,76.07,191.18c-3.41,5.95-6.93,11.84-10.38,17.76a4,4,0,0,1-3.89,2.17c-5.42-.12-10.84,0-16.77,0,.84-1.82,1.4-3.28,2.15-4.63q7.34-13,14.73-26c4.34-7.62,8.76-15.2,13-22.85,1.51-2.71,2.81-5.55,4.06-8.39,1-2.16.39-3-1.94-3-10.39-.06-20.78-.07-31.18-.12-5,0-10.07,0-15.1-.17a4.45,4.45,0,0,1-3.18-1.67c-2.89-4.76-5.54-9.68-8.25-14.55A14,14,0,0,1,18.78,127.76Z"/><path class="cls-1" d="M170,133.14c2.19-2.41,4-4.17,5.54-6.16,2.63-3.4,5-7,7.67-10.38a4.63,4.63,0,0,1,3-1.78c13.44-.07,26.88,0,40.31,0,2.66,0,4.21,1.14,5.4,3.48,2,3.9,4.28,7.65,6.42,11.48.54.95,1,1.94,1.69,3.34Z"/><path class="cls-1" d="M0,94.7H68.73c-.56.75-.93,1.27-1.32,1.77-3.58,4.58-7.36,9-10.67,13.79a6,6,0,0,1-5.51,2.94c-11.83-.07-23.68-.38-35.5,0-4.84.18-7-1.84-8.85-5.75C4.94,103.32,2.53,99.36,0,94.7Z"/><path class="cls-1" d="M182.09,196.93c-1.31-2.15-2.55-4.07-3.66-6.06-4.46-7.93-8.87-15.89-13.31-23.82-2.1-3.76-4.31-7.46-6.34-11.26-1.77-3.29-3.42-6.66-5-10.06a2.37,2.37,0,0,1,.85-2c3.65-2.57,7.41-5,11.08-7.5,1.35-.93,2.25-.87,3,.66,3,5.64,5.91,11.28,8.94,16.88,2.78,5.12,5.64,10.18,8.48,15.27,1.82,3.27,3.68,6.52,5.44,9.83a2.4,2.4,0,0,1,.13,2C188.92,186,186,191.06,183,196.17,182.92,196.36,182.67,196.47,182.09,196.93Z"/><path class="cls-1" d="M57.59,32.51c2.12,3.66,4.17,7.13,6.15,10.64,3.68,6.54,7.31,13.1,11,19.64q5.19,9.3,10.42,18.58c.7,1.24.44,2-.75,2.76q-5.55,3.53-11,7.2c-1.16.78-1.91.82-2.67-.54-3.94-7.11-8-14.17-11.93-21.26C55.65,64,52.65,58.34,49.38,52.87a6.16,6.16,0,0,1,0-7.1c2.51-4.06,4.86-8.23,7.29-12.35C56.78,33.17,57.07,33,57.59,32.51Z"/></svg>